<?xml version="1.0" encoding="UTF-8"?>
<svg width="24px" height="24px" viewBox="0 0 24 24" version="1.1" xmlns="http://www.w3.org/2000/svg">
    <g stroke="none" stroke-width="1" fill="none" fill-rule="evenodd">
        <!-- Tazón -->
        <path d="M4,8 C4,5.790861 5.790861,4 8,4 L16,4 C18.209139,4 20,5.790861 20,8 L20,16 C20,18.209139 18.209139,20 16,20 L8,20 C5.790861,20 4,18.209139 4,16 L4,8 Z" fill="#000000"/>
        <path d="M4,8 C4,5.790861 5.790861,4 8,4 L16,4 C18.209139,4 20,5.790861 20,8 L20,16 C20,18.209139 18.209139,20 16,20 L8,20 C5.790861,20 4,18.209139 4,16 L4,8 Z" stroke="#000000" stroke-width="1.5"/>
        
        <!-- Palillos -->
        <path d="M6,12 L18,12" stroke="#000000" stroke-width="1.5" stroke-linecap="round"/>
        <path d="M6,14 L18,14" stroke="#000000" stroke-width="1.5" stroke-linecap="round"/>
        
        <!-- Vapor -->
        <path d="M10,6 C10,6 11,5 12,6 C13,7 14,6 14,6" stroke="#000000" stroke-width="1" stroke-linecap="round"/>
        <path d="M8,4 C8,4 9,3 10,4 C11,5 12,4 12,4" stroke="#000000" stroke-width="1" stroke-linecap="round"/>
        <path d="M14,4 C14,4 15,3 16,4 C17,5 18,4 18,4" stroke="#000000" stroke-width="1" stroke-linecap="round"/>
    </g>
</svg>
